<?xml version="1.0" encoding="UTF-8" standalone="no"?>
<svg width="1096px" height="405px" viewBox="0 0 1096 405" version="1.1" xmlns="http://www.w3.org/2000/svg" xmlns:xlink="http://www.w3.org/1999/xlink">
    <!-- Generator: Sketch 40.2 (33826) - http://www.bohemiancoding.com/sketch -->
    <title>Group 6</title>
    <desc>Created with Sketch.</desc>
    <defs>
        <linearGradient x1="50%" y1="0%" x2="50%" y2="100%" id="linearGradient-1">
            <stop stop-color="#0FCAF1" offset="0%"></stop>
            <stop stop-color="#059BBC" offset="100%"></stop>
        </linearGradient>
        <linearGradient x1="50%" y1="0%" x2="50%" y2="100%" id="linearGradient-2">
            <stop stop-color="#3C9CDC" offset="0%"></stop>
            <stop stop-color="#1C62B6" offset="100%"></stop>
        </linearGradient>
        <linearGradient x1="50%" y1="0%" x2="50%" y2="100%" id="linearGradient-3">
            <stop stop-color="#F7AB22" offset="0%"></stop>
            <stop stop-color="#F2450F" offset="100%"></stop>
        </linearGradient>
        <linearGradient x1="50%" y1="15.6270591%" x2="50%" y2="85.070099%" id="linearGradient-4">
            <stop stop-color="#0EC9F1" offset="0%"></stop>
            <stop stop-color="#1C62B6" offset="100%"></stop>
        </linearGradient>
    </defs>
    <g id="Page-1" stroke="none" stroke-width="1" fill="none" fill-rule="evenodd">
        <g id="Group-6">
            <g id="Group" transform="translate(461.000000, 65.000000)">
                <path d="M434.940114,31.8737542 L506.366453,31.8737542 L506.366453,78.7775985 L434.940114,78.7775985 L434.940114,31.8737542 Z M434.940114,116.504604 L541.059247,116.504604 L541.059247,163.408448 L434.940114,163.408448 L434.940114,116.504604 Z M434.940114,199.096156 L577.792793,199.096156 L577.792793,246 L434.940114,246 L434.940114,199.096156 Z" id="Combined-Shape" fill="url(#linearGradient-1)"></path>
                <polygon id="Shape" fill="url(#linearGradient-2)" points="376.056394 111.213808 317.78844 228.232729 289.116907 228.232729 231.157248 111.213808 231.157248 246 183.063063 246 183.063063 31.8737542 248.113531 31.8737542 303.606821 149.50534 359.408407 31.8737542 424.150579 31.8737542 424.150579 246 376.056394 246"></polygon>
                <path d="M180.429475,246 L160.517903,199.743829 L70.7626633,199.743829 L50.8510914,246 L0,246 L92.5122265,31.8737542 L138.76834,31.8737542 L231.280566,246 L180.429475,246 L180.429475,246 Z M115.793449,95.5908631 L88.8362441,157.776311 L142.444322,157.776311 L115.793449,95.5908631 L115.793449,95.5908631 Z" id="Shape" fill="url(#linearGradient-2)"></path>
                <path d="M576.444378,33.7948393 L542.651223,33.7948393 L542.651223,58.1486823 L576.444378,58.1486823 L576.444378,91.941838 L600.798221,91.941838 L600.798221,58.1486823 L634.591377,58.1486823 L634.591377,33.7948393 L600.798221,33.7948393 L600.798221,0.00168357726 L576.444378,0.00168357726 L576.444378,33.7948393 Z M576.444378,33.7948393 L600.798221,33.7948393 L600.798221,58.1486823 L576.444378,58.1486823 L576.444378,33.7948393 Z" id="Combined-Shape" fill="url(#linearGradient-3)"></path>
            </g>
            <g id="病毒库" fill="url(#linearGradient-4)">
                <path d="M259.255623,102.729818 C243.519147,95.0371241 225.799723,90.721091 207.114246,90.721091 C201.661138,90.721091 196.309719,91.089223 191.047278,91.7874049 L183.293441,52.2703141 C192.343822,47.7638677 198.53418,38.4590082 198.53418,27.7197026 C198.53418,12.56281 186.242442,0.287504182 171.07797,0.287504182 C155.913499,0.287504182 143.62176,12.575504 143.62176,27.7197026 C143.62176,42.4703802 155.277938,54.4918017 169.895828,55.1138183 L177.586109,94.4151075 C157.349865,99.5816528 139.185548,109.940132 124.605792,123.979934 L108.843894,109.445058 C109.250652,108.061389 109.466742,106.614248 109.466742,105.103636 C109.466742,96.5731238 102.564556,89.6674713 94.0353353,89.6674713 C85.5061146,89.6674713 78.5657949,96.5731238 78.5657949,105.103636 C78.5657949,113.621454 85.4934035,120.527107 94.0353353,120.527107 C95.9674394,120.527107 97.8359868,120.17167 99.552,119.524264 L115.32661,134.05914 C104.153458,147.603868 95.9420168,163.674744 91.6583396,181.28162 L78.3497045,178.84433 C76.798937,169.006314 68.2951384,161.478645 58.0117708,161.478645 C46.6479504,161.478645 37.4196131,170.707339 37.4196131,182.043273 C37.4196131,193.417289 46.6479504,202.595207 58.0117708,202.595207 C65.6512071,202.595207 72.3373026,198.456892 75.8710184,192.287504 L89.2050762,194.724793 C88.6203606,199.523207 88.2898695,204.423174 88.2898695,209.373917 C88.2898695,229.887769 93.5014649,249.170281 102.691669,265.990116 L46.558972,300.75957 C41.627023,296.011934 34.928216,293.117653 27.5684265,293.117653 C12.3912435,293.117653 0.0995048916,305.392959 0.0995048916,320.549851 C0.0995048916,335.668661 12.3912435,347.969356 27.5684265,347.969356 C42.732898,347.969356 55.0246365,335.668661 55.0246365,320.549851 C55.0246365,317.706347 54.5797445,314.939008 53.7789384,312.349388 L109.898924,277.579934 C113.85211,283.190777 118.27561,288.446182 123.118581,293.269984 C134.558668,304.720165 148.363041,313.847306 163.730892,319.851669 L149.405359,363.570545 C138.244918,363.849818 129.283517,372.95157 129.283517,384.135174 C129.283517,395.50919 138.511854,404.712496 149.901097,404.712496 C161.277629,404.712496 170.493254,395.50919 170.493254,384.135174 C170.493254,377.496099 167.340875,371.605984 162.434348,367.848496 L176.747169,324.091537 C186.43311,326.668463 196.614788,328.026744 207.114246,328.026744 C211.728415,328.026744 216.253605,327.760165 220.753373,327.252397 L221.859248,333.510644 C218.020463,336.341455 215.516355,340.847901 215.516355,345.976364 C215.516355,354.494182 222.431252,361.412529 230.960473,361.412529 C239.502405,361.412529 246.430014,354.506876 246.430014,345.976364 C246.430014,338.956463 241.752289,333.066347 235.34584,331.174909 L234.239965,324.929356 C254.298252,320.257884 272.399013,310.508727 287.131303,297.116331 L319.799109,329.029587 C317.472958,333.066347 316.138281,337.725124 316.138281,342.739339 C316.138281,357.870843 328.43002,370.12076 343.594491,370.12076 C358.771674,370.12076 371.03799,357.870843 371.03799,342.739339 C371.03799,327.582446 358.771674,315.307141 343.594491,315.307141 C338.382896,315.307141 333.527214,316.754281 329.357938,319.28043 L296.702843,287.329091 C313.519772,268.097355 324.184476,243.369025 325.735243,216.241488 L367.885611,216.241488 C370.707499,224.238843 378.334224,229.938545 387.295626,229.938545 C398.684869,229.938545 407.900495,220.73524 407.900495,209.386611 C407.900495,198.025289 398.684869,188.809289 387.295626,188.809289 C378.334224,188.809289 370.707499,194.547074 367.885611,202.531736 L325.735243,202.531736 C324.197187,175.658083 313.723152,151.183636 297.211292,132.015372 L361.695252,69.8391074 C364.453584,71.2227768 367.605964,72.0098182 370.923589,72.0098182 C382.28741,72.0098182 391.528459,62.7938182 391.528459,51.432496 C391.528459,40.0584792 382.28741,30.8805619 370.923589,30.8805619 C359.559769,30.8805619 350.331432,40.0711737 350.331432,51.432496 C350.331432,54.4918017 350.992415,57.3860827 352.187268,59.9883967 L287.703308,122.164661 C282.606113,117.455108 277.089449,113.202545 271.229582,109.457752 L288.758338,78.2934545 C289.915058,78.496562 291.0972,78.5854215 292.317476,78.5854215 C303.681297,78.5854215 312.922346,69.3821156 312.909634,58.0207934 C312.909634,46.6721652 303.681297,37.4561652 292.317476,37.4561652 C280.928234,37.4561652 271.712607,46.6721652 271.712607,58.0207934 C271.712607,63.2127273 273.644711,67.9476694 276.822513,71.578215 L259.255623,102.729818 Z M188.863003,121.881039 L223.378058,121.881039 L281.088044,260.873678 L244.737206,260.873678 L208.213014,163.667608 L170.83524,260.873678 L134.561956,260.873678 L188.863003,121.881039 Z M207.825,236.708238 L238.672597,259.873678 L176.977403,259.873678 L207.825,236.708238 Z" id="Combined-Shape"></path>
            </g>
        </g>
    </g>
</svg>